# UnrealEd OBJ exporter (_Internal)



v 475.000000 350.000000 80.324463

v 475.000000 350.000000 -43.403137

v 475.000000 -189.122925 180.422653

v 475.000000 350.000000 -43.403137

v 475.000000 350.000000 -210.292603

v 475.000000 -99.427689 143.184204

v 475.000000 350.000000 -210.292603

v 475.000000 350.000000 -583.860291

v 474.999969 -34.260437 91.929886

v 475.000000 -350.000000 -647.212769

v 475.000000 -350.000000 -340.260498

v 474.999969 -34.260498 -91.929924

v 475.000000 -350.000000 -340.260498

v 475.000000 -350.000000 -247.213562

v 475.000000 -99.427689 -143.184219

v 475.000000 -350.000000 -247.213562

v 475.000000 -350.000000 -210.292419

v 475.000000 -189.122726 -180.422638

v 475.000000 -350.000000 -210.292419

v 475.000031 -350.000000 -200.000000

v 475.000000 -294.565460 -200.000000

v 475.000031 -350.000000 200.000015

v 475.000000 -350.000000 210.292480

v 475.000000 -294.565460 200.000000

v 500.000000 375.000000 -53.782379

v 500.000000 375.000000 75.682800

v 500.000000 -189.122681 180.422592

v 500.000000 375.000000 -229.955215

v 500.000000 375.000000 -53.782379

v 500.000000 -99.427681 143.184204

v 500.000000 375.000000 -627.827148

v 500.000000 375.000000 -229.955215

v 500.000000 -34.260437 91.929886

v 500.000000 -375.000000 -359.923157

v 500.000000 -375.000000 -691.179626

v 500.000000 -34.260498 -91.929924

v 500.000000 -375.000000 -257.592712

v 500.000000 -375.000000 -359.923157

v 500.000000 -99.427681 -143.184219

v 500.000000 -375.000000 -214.934143

v 500.000000 -375.000000 -257.592712

v 500.000000 -189.122726 -180.422638

v 500.000000 -375.000000 -200.000000

v 500.000000 -375.000000 -214.934143

v 500.000000 -294.565460 -200.000000

v -500.000000 375.000000 750.000000

v -500.000000 375.000000 -750.000000

v -500.000000 -375.000000 -750.000000

v -500.000000 -375.000000 750.000000

v 500.000000 375.000000 750.000000

v -500.000000 375.000000 750.000000

v -500.000000 -375.000000 750.000000

v 500.000000 -375.000000 750.000000

v 500.000000 375.000000 750.000000

v 500.000000 -375.000000 750.000000

v 500.000000 -375.000000 214.934143

v 500.000000 375.000000 75.682800

v -500.000000 375.000000 -750.000000

v 500.000000 375.000000 -750.000000

v 500.000000 -375.000000 -750.000000

v -500.000000 -375.000000 -750.000000

v 500.000000 375.000000 -750.000000

v -500.000000 375.000000 -750.000000

v -500.000000 375.000000 750.000000

v 500.000000 375.000000 750.000000

v -475.000000 350.000000 -725.000000

v -475.000000 350.000000 725.000000

v -475.000000 -350.000000 725.000000

v -475.000000 -350.000000 -725.000000

v -475.000000 350.000000 725.000000

v 475.000000 350.000000 725.000000

v 475.000000 -350.000000 725.000000

v -475.000000 -350.000000 725.000000

v 475.000031 -375.000000 200.000015

v 475.000031 -375.000000 -200.000000

v 475.000031 -350.000000 -200.000000

v 475.000031 -350.000000 200.000015

v 475.000000 -294.565460 200.000000

v 475.000000 -189.122681 180.422592

v 500.000000 -189.122681 180.422592

v 500.000000 -294.565460 200.000000

v 475.000000 -189.122681 180.422592

v 475.000000 -99.427689 143.184204

v 500.000000 -99.427681 143.184204

v 500.000000 -189.122681 180.422592

v 475.000000 -99.427689 143.184204

v 474.999969 -34.260437 91.929886

v 500.000000 -34.260437 91.929886

v 500.000000 -99.427681 143.184204

v 474.999969 -34.260437 91.929886

v 474.999969 -0.000031 31.676884

v 500.000000 -0.000031 31.676884

v 500.000000 -34.260437 91.929886

v 474.999969 -0.000031 31.676884

v 474.999969 -0.000031 -31.676918

v 500.000000 -0.000031 -31.676918

v 500.000000 -0.000031 31.676884

v 474.999969 -0.000031 -31.676918

v 474.999969 -34.260498 -91.929924

v 500.000000 -34.260498 -91.929924

v 500.000000 -0.000031 -31.676918

v 474.999969 -34.260498 -91.929924

v 475.000000 -99.427689 -143.184219

v 500.000000 -99.427681 -143.184219

v 500.000000 -34.260498 -91.929924

v 475.000000 -99.427689 -143.184219

v 475.000000 -189.122726 -180.422638

v 500.000000 -189.122726 -180.422638

v 500.000000 -99.427681 -143.184219

v 475.000000 -189.122726 -180.422638

v 475.000000 -294.565460 -200.000000

v 500.000000 -294.565460 -200.000000

v 500.000000 -189.122726 -180.422638

v 500.000000 -294.565460 -200.000000

v 475.000000 -294.565460 -200.000000

v 475.000031 -375.000000 -200.000000

v 500.000000 -375.000000 -200.000000

v 475.000031 -375.000000 200.000015

v 475.000000 -294.565460 200.000000

v 500.000000 -294.565460 200.000000

v 500.000000 -375.000000 200.000015

v 475.000000 350.000000 -725.000000

v -475.000000 350.000000 -725.000000

v -475.000000 -350.000000 -725.000000

v 475.000000 -350.000000 -725.000000

v -475.000000 350.000000 -725.000000

v 475.000000 350.000000 -725.000000

v 475.000000 350.000000 725.000000

v -475.000000 350.000000 725.000000

v -475.000000 -350.000000 725.000000

v 475.000000 -350.000000 725.000000

v 475.000000 -350.000000 -725.000000

v -475.000000 -350.000000 -725.000000

v 475.000000 350.000000 725.000000

v 475.000000 350.000000 80.324463

v 475.000000 -350.000000 210.292480

v 475.000000 -350.000000 725.000000

v 475.000000 350.000000 -725.000000

v 475.000000 -0.000061 -725.000000

v 474.999969 -0.000031 31.676884

v 475.000000 350.000000 -583.860291

v 475.000000 -350.000000 -725.000000

v 475.000000 -350.000000 -647.212769

v 474.999969 -0.000031 -31.676918

v 475.000000 -0.000061 -725.000000

v -500.000000 -375.000000 200.000000

v -500.000000 -375.000000 -200.000000

v 475.000031 -375.000000 -200.000000

v 475.000031 -375.000000 200.000015

v 500.000000 375.000000 -750.000000

v 500.000000 375.000000 -627.827148

v 500.000000 -0.000031 31.676884

v 500.000000 -0.000031 -750.000000

v 500.000000 -0.000031 -750.000000

v 500.000000 -0.000031 -31.676918

v 500.000000 -375.000000 -691.179626

v 500.000000 -375.000000 -750.000000

v 500.000000 -375.000000 750.000000

v -500.000000 -375.000000 750.000000

v -500.000000 -375.000000 214.934143

v 500.000000 -375.000000 214.934143

v -500.000000 -375.000000 205.650726

v 500.000000 -375.000000 205.650726

v -500.000000 -375.000000 200.000000

v 500.000000 -375.000000 200.000015

v 500.000000 -375.000000 -200.000000

v -500.000000 -375.000000 -200.000000

v -500.000000 -375.000000 -214.934113

v 500.000000 -375.000000 -214.934143

v -500.000000 -375.000000 -257.592651

v 500.000000 -375.000000 -257.592712

v -500.000000 -375.000000 -359.923004

v 500.000000 -375.000000 -359.923157

v -500.000000 -375.000000 -691.179443

v 500.000000 -375.000000 -691.179626

v -500.000000 -375.000000 -750.000000

v 500.000000 -375.000000 -750.000000

v 500.000000 -350.000031 210.292435

v 500.000000 -375.000000 214.934143

v 500.000000 -375.000000 205.650726

v 500.000000 -375.000000 200.000015

v 500.000000 -294.565643 200.000015



vt 8.046875 8.000000

vt 6.812500 8.000000

vt 9.046875 2.608398

vt 6.812500 8.000000

vt 5.144531 8.000000

vt 8.679688 3.503906

vt 5.144531 8.000000

vt 1.411133 8.000000

vt 8.164063 4.156250

vt 0.777832 1.000000

vt 3.845703 1.000000

vt 6.328125 4.156250

vt 3.845703 1.000000

vt 4.777344 1.000000

vt 5.816406 3.503906

vt 4.777344 1.000000

vt 5.144531 1.000000

vt 5.445313 2.608398

vt 5.144531 1.000000

vt 5.250000 1.000000

vt 5.250000 1.554199

vt 9.250000 1.000000

vt 9.351563 1.000000

vt 9.250000 1.554199

vt 8.031250 8.500000

vt 6.742188 8.500000

vt 5.695313 2.858398

vt 9.796875 8.500000

vt 8.031250 8.500000

vt 6.066406 3.753906

vt 13.773438 8.500000

vt 9.796875 8.500000

vt 6.578125 4.406250

vt 11.093750 1.000000

vt 14.406250 1.000000

vt 8.414063 4.406250

vt 10.070313 1.000000

vt 11.093750 1.000000

vt 8.929688 3.753906

vt 9.648438 1.000000

vt 10.070313 1.000000

vt 9.296875 2.858398

vt 9.500000 1.000000

vt 9.648438 1.000000

vt 9.500000 1.804199

vt 15.000000 8.500000

vt 0.000000 8.500000

vt 0.000000 1.000000

vt 15.000000 1.000000

vt 10.000000 8.500000

vt 0.000000 8.500000

vt 0.000000 1.000000

vt 10.000000 1.000000

vt 0.000000 8.500000

vt 0.000000 1.000000

vt 5.347656 1.000000

vt 6.742188 8.500000

vt 10.000000 8.500000

vt 0.000000 8.500000

vt 0.000000 1.000000

vt 10.000000 1.000000

vt 10.000000 16.000000

vt 0.000000 16.000000

vt 0.000000 1.000000

vt 10.000000 1.000000

vt 14.500000 8.000000

vt 0.000000 8.000000

vt 0.000000 1.000000

vt 14.500000 1.000000

vt 9.500000 8.000000

vt 0.000000 8.000000

vt 0.000000 1.000000

vt 9.500000 1.000000

vt 0.053741 0.834717

vt 3.857422 2.070313

vt 3.900391 1.934570

vt 0.097839 0.698975

vt -0.000000 3.000000

vt 0.633301 3.000000

vt 0.633301 2.750000

vt -0.000000 2.750000

vt -0.000000 2.999023

vt 0.633301 2.999023

vt 0.633301 2.749023

vt -0.000000 2.749023

vt -0.000000 2.999023

vt 0.633301 2.999023

vt 0.633301 2.749023

vt -0.000000 2.749023

vt 0.000000 2.999023

vt 0.633301 2.999023

vt 0.633301 2.749023

vt 0.000000 2.749023

vt 0.000000 2.999023

vt 0.633301 2.999023

vt 0.633301 2.749023

vt 0.000000 2.749023

vt -0.000000 2.999023

vt 0.633301 2.999023

vt 0.633301 2.749023

vt -0.000000 2.749023

vt -0.000000 2.999023

vt 0.633301 2.999023

vt 0.633301 2.749023

vt -0.000000 2.749023

vt 0.000000 2.999023

vt 0.633301 2.999023

vt 0.633301 2.749023

vt 0.000000 2.749023

vt 0.000000 2.999023

vt 0.633301 2.999023

vt 0.633301 2.749023

vt 0.000000 2.749023

vt -0.000000 2.750000

vt -0.000000 3.000000

vt 0.459473 2.999023

vt 0.459473 2.750000

vt 0.173828 2.999023

vt 0.633301 3.000000

vt 0.633301 2.750000

vt 0.173828 2.750000

vt 9.500000 8.000000

vt 0.000000 8.000000

vt 0.000000 1.000000

vt 9.500000 1.000000

vt 9.500000 15.500000

vt 0.000000 15.500000

vt 0.000000 1.000000

vt 9.500000 1.000000

vt 9.500000 15.500000

vt 0.000000 15.500000

vt 0.000000 1.000000

vt 9.500000 1.000000

vt 14.500000 8.000000

vt 8.046875 8.000000

vt 9.351563 1.000000

vt 14.500000 1.000000

vt 0.000000 8.000000

vt 0.000000 4.498047

vt 7.566406 4.498047

vt 1.411133 8.000000

vt 0.000000 1.000000

vt 0.777832 1.000000

vt 6.929688 4.498047

vt 0.000000 4.498047

vt 0.000000 10.500000

vt 0.000000 6.500000

vt 9.750000 6.500000

vt 9.750000 10.500000

vt 15.000000 8.500000

vt 13.773438 8.500000

vt 7.179688 4.748047

vt 15.000000 4.748047

vt 15.000000 4.748047

vt 7.816406 4.748047

vt 14.406250 1.000000

vt 15.000000 1.000000

vt 10.000000 16.000000

vt 0.000000 16.000000

vt 0.000000 10.648438

vt 10.000000 10.648438

vt 0.000000 10.554688

vt 10.000000 10.554688

vt 0.000000 10.500000

vt 10.000000 10.500000

vt 10.000000 6.500000

vt 0.000000 6.500000

vt 0.000000 6.347656

vt 10.000000 6.347656

vt 0.000000 5.921875

vt 10.000000 5.921875

vt 0.000000 4.900391

vt 10.000000 4.900391

vt 0.000000 1.587891

vt 10.000000 1.587891

vt 0.000000 1.000000

vt 10.000000 1.000000

vt 5.394531 1.249878

vt 5.347656 1.000000

vt 5.441406 1.000000

vt 5.500000 1.000000

vt 5.500000 1.804199



vn -1.000000 0.000000 0.000000

vn -1.000000 0.000000 0.000000

vn -1.000000 0.000000 0.000000

vn -1.000000 0.000000 0.000000

vn -1.000000 0.000000 0.000000

vn -1.000000 0.000000 0.000000

vn -1.000000 0.000000 0.000000

vn -1.000000 0.000000 0.000000

vn -1.000000 0.000000 0.000000

vn -1.000000 0.000000 0.000000

vn -1.000000 0.000000 0.000000

vn -1.000000 0.000000 0.000000

vn -1.000000 0.000000 0.000000

vn -1.000000 0.000000 0.000000

vn -1.000000 0.000000 0.000000

vn -1.000000 0.000000 0.000000

vn -1.000000 0.000000 0.000000

vn -1.000000 0.000000 0.000000

vn -1.000000 0.000000 0.000000

vn -1.000000 0.000000 0.000000

vn -1.000000 0.000000 0.000000

vn -1.000000 0.000000 0.000000

vn -1.000000 0.000000 0.000000

vn -1.000000 0.000000 0.000000

vn 1.000000 0.000000 0.000000

vn 1.000000 0.000000 0.000000

vn 1.000000 0.000000 0.000000

vn 1.000000 0.000000 0.000000

vn 1.000000 0.000000 0.000000

vn 1.000000 0.000000 0.000000

vn 1.000000 0.000000 0.000000

vn 1.000000 0.000000 0.000000

vn 1.000000 0.000000 0.000000

vn 1.000000 0.000000 0.000000

vn 1.000000 0.000000 0.000000

vn 1.000000 0.000000 0.000000

vn 1.000000 0.000000 0.000000

vn 1.000000 0.000000 0.000000

vn 1.000000 0.000000 0.000000

vn 1.000000 0.000000 0.000000

vn 1.000000 0.000000 0.000000

vn 1.000000 0.000000 0.000000

vn 1.000000 0.000000 0.000000

vn 1.000000 0.000000 0.000000

vn 1.000000 0.000000 0.000000

vn -1.000000 0.000000 0.000000

vn -1.000000 0.000000 0.000000

vn -1.000000 0.000000 0.000000

vn -1.000000 0.000000 0.000000

vn 0.000000 0.000000 1.000000

vn 0.000000 0.000000 1.000000

vn 0.000000 0.000000 1.000000

vn 0.000000 0.000000 1.000000

vn 1.000000 0.000000 0.000000

vn 1.000000 0.000000 0.000000

vn 1.000000 0.000000 0.000000

vn 1.000000 0.000000 0.000000

vn 0.000000 0.000000 -1.000000

vn 0.000000 0.000000 -1.000000

vn 0.000000 0.000000 -1.000000

vn 0.000000 0.000000 -1.000000

vn 0.000000 1.000000 0.000000

vn 0.000000 1.000000 0.000000

vn 0.000000 1.000000 0.000000

vn 0.000000 1.000000 0.000000

vn 1.000000 0.000000 0.000000

vn 1.000000 0.000000 0.000000

vn 1.000000 0.000000 0.000000

vn 1.000000 0.000000 0.000000

vn 0.000000 0.000000 -1.000000

vn 0.000000 0.000000 -1.000000

vn 0.000000 0.000000 -1.000000

vn 0.000000 0.000000 -1.000000

vn 1.000000 0.000000 0.000000

vn 1.000000 0.000000 0.000000

vn 1.000000 0.000000 0.000000

vn 1.000000 0.000000 0.000000

vn 0.000000 -0.181102 -0.984252

vn 0.000000 -0.181102 -0.984252

vn 0.000000 -0.181102 -0.984252

vn 0.000000 -0.181102 -0.984252

vn 0.000000 -0.385827 -0.921260

vn 0.000000 -0.385827 -0.921260

vn 0.000000 -0.385827 -0.921260

vn 0.000000 -0.385827 -0.921260

vn 0.000000 -0.622047 -0.787402

vn 0.000000 -0.622047 -0.787402

vn 0.000000 -0.622047 -0.787402

vn 0.000000 -0.622047 -0.787402

vn 0.000000 -0.866142 -0.496063

vn 0.000000 -0.866142 -0.496063

vn 0.000000 -0.866142 -0.496063

vn 0.000000 -0.866142 -0.496063

vn 0.000000 -1.000000 0.000000

vn 0.000000 -1.000000 0.000000

vn 0.000000 -1.000000 0.000000

vn 0.000000 -1.000000 0.000000

vn 0.000000 -0.866142 0.496063

vn 0.000000 -0.866142 0.496063

vn 0.000000 -0.866142 0.496063

vn 0.000000 -0.866142 0.496063

vn 0.000000 -0.622047 0.787402

vn 0.000000 -0.622047 0.787402

vn 0.000000 -0.622047 0.787402

vn 0.000000 -0.622047 0.787402

vn 0.000000 -0.385827 0.921260

vn 0.000000 -0.385827 0.921260

vn 0.000000 -0.385827 0.921260

vn 0.000000 -0.385827 0.921260

vn 0.000000 -0.181102 0.984252

vn 0.000000 -0.181102 0.984252

vn 0.000000 -0.181102 0.984252

vn 0.000000 -0.181102 0.984252

vn 0.000000 0.000000 1.000000

vn 0.000000 0.000000 1.000000

vn 0.000000 0.000000 1.000000

vn 0.000000 0.000000 1.000000

vn 0.000000 0.000000 -1.000000

vn 0.000000 0.000000 -1.000000

vn 0.000000 0.000000 -1.000000

vn 0.000000 0.000000 -1.000000

vn 0.000000 0.000000 1.000000

vn 0.000000 0.000000 1.000000

vn 0.000000 0.000000 1.000000

vn 0.000000 0.000000 1.000000

vn 0.000000 -1.000000 0.000000

vn 0.000000 -1.000000 0.000000

vn 0.000000 -1.000000 0.000000

vn 0.000000 -1.000000 0.000000

vn 0.000000 1.000000 0.000000

vn 0.000000 1.000000 0.000000

vn 0.000000 1.000000 0.000000

vn 0.000000 1.000000 0.000000

vn -1.000000 0.000000 0.000000

vn -1.000000 0.000000 0.000000

vn -1.000000 0.000000 0.000000

vn -1.000000 0.000000 0.000000

vn -1.000000 0.000000 0.000000

vn -1.000000 0.000000 0.000000

vn -1.000000 0.000000 0.000000

vn -1.000000 0.000000 0.000000

vn -1.000000 0.000000 0.000000

vn -1.000000 0.000000 0.000000

vn -1.000000 0.000000 0.000000

vn -1.000000 0.000000 0.000000

vn 0.000000 -1.000000 0.000000

vn 0.000000 -1.000000 0.000000

vn 0.000000 -1.000000 0.000000

vn 0.000000 -1.000000 0.000000

vn 1.000000 0.000000 0.000000

vn 1.000000 0.000000 0.000000

vn 1.000000 0.000000 0.000000

vn 1.000000 0.000000 0.000000

vn 1.000000 0.000000 0.000000

vn 1.000000 0.000000 0.000000

vn 1.000000 0.000000 0.000000

vn 1.000000 0.000000 0.000000

vn 0.000000 -1.000000 0.000000

vn 0.000000 -1.000000 0.000000

vn 0.000000 -1.000000 0.000000

vn 0.000000 -1.000000 0.000000

vn 0.000000 -1.000000 0.000000

vn 0.000000 -1.000000 0.000000

vn 0.000000 -1.000000 0.000000

vn 0.000000 -1.000000 0.000000

vn 0.000000 -1.000000 0.000000

vn 0.000000 -1.000000 0.000000

vn 0.000000 -1.000000 0.000000

vn 0.000000 -1.000000 0.000000

vn 0.000000 -1.000000 0.000000

vn 0.000000 -1.000000 0.000000

vn 0.000000 -1.000000 0.000000

vn 0.000000 -1.000000 0.000000

vn 0.000000 -1.000000 0.000000

vn 0.000000 -1.000000 0.000000

vn 0.000000 -1.000000 0.000000

vn 0.000000 -1.000000 0.000000

vn 1.000000 0.000000 0.000000

vn 1.000000 0.000000 0.000000

vn 1.000000 0.000000 0.000000

vn 1.000000 0.000000 0.000000

vn 1.000000 0.000000 0.000000

f 1/1/1 2/2/2 3/3/3

f 4/4/4 5/5/5 6/6/6

f 7/7/7 8/8/8 9/9/9

f 10/10/10 11/11/11 12/12/12

f 13/13/13 14/14/14 15/15/15

f 16/16/16 17/17/17 18/18/18

f 19/19/19 20/20/20 21/21/21

f 22/22/22 23/23/23 24/24/24

f 25/25/25 26/26/26 27/27/27

f 28/28/28 29/29/29 30/30/30

f 31/31/31 32/32/32 33/33/33

f 34/34/34 35/35/35 36/36/36

f 37/37/37 38/38/38 39/39/39

f 40/40/40 41/41/41 42/42/42

f 43/43/43 44/44/44 45/45/45

f 46/46/46 47/47/47 48/48/48

f 49/49/49 46/46/46 48/48/48

f 50/50/50 51/51/51 52/52/52

f 53/53/53 50/50/50 52/52/52

f 54/54/54 55/55/55 56/56/56

f 57/57/57 54/54/54 56/56/56

f 58/58/58 59/59/59 60/60/60

f 61/61/61 58/58/58 60/60/60

f 62/62/62 63/63/63 64/64/64

f 65/65/65 62/62/62 64/64/64

f 66/66/66 67/67/67 68/68/68

f 69/69/69 66/66/66 68/68/68

f 70/70/70 71/71/71 72/72/72

f 73/73/73 70/70/70 72/72/72

f 74/74/74 75/75/75 76/76/76

f 77/77/77 74/74/74 76/76/76

f 78/78/78 79/79/79 80/80/80

f 81/81/81 78/78/78 80/80/80

f 82/82/82 83/83/83 84/84/84

f 85/85/85 82/82/82 84/84/84

f 86/86/86 87/87/87 88/88/88

f 89/89/89 86/86/86 88/88/88

f 90/90/90 91/91/91 92/92/92

f 93/93/93 90/90/90 92/92/92

f 94/94/94 95/95/95 96/96/96

f 97/97/97 94/94/94 96/96/96

f 98/98/98 99/99/99 100/100/100

f 101/101/101 98/98/98 100/100/100

f 102/102/102 103/103/103 104/104/104

f 105/105/105 102/102/102 104/104/104

f 106/106/106 107/107/107 108/108/108

f 109/109/109 106/106/106 108/108/108

f 110/110/110 111/111/111 112/112/112

f 113/113/113 110/110/110 112/112/112

f 114/114/114 115/115/115 116/116/116

f 117/117/117 114/114/114 116/116/116

f 118/118/118 119/119/119 120/120/120

f 121/121/121 118/118/118 120/120/120

f 122/122/122 123/123/123 124/124/124

f 125/125/125 122/122/122 124/124/124

f 126/126/126 127/127/127 128/128/128

f 129/129/129 126/126/126 128/128/128

f 130/130/130 131/131/131 132/132/132

f 133/133/133 130/130/130 132/132/132

f 134/134/134 135/135/135 136/136/136

f 137/137/137 134/134/134 136/136/136

f 138/138/138 139/139/139 140/140/140

f 141/141/141 138/138/138 140/140/140

f 142/142/142 143/143/143 144/144/144

f 145/145/145 142/142/142 144/144/144

f 146/146/146 147/147/147 148/148/148

f 149/149/149 146/146/146 148/148/148

f 150/150/150 151/151/151 152/152/152

f 153/153/153 150/150/150 152/152/152

f 154/154/154 155/155/155 156/156/156

f 157/157/157 154/154/154 156/156/156

f 158/158/158 159/159/159 160/160/160

f 161/161/161 158/158/158 160/160/160

f 161/161/161 160/160/160 162/162/162

f 163/163/163 161/161/161 162/162/162

f 163/163/163 162/162/162 164/164/164

f 165/165/165 163/163/163 164/164/164

f 166/166/166 167/167/167 168/168/168

f 169/169/169 166/166/166 168/168/168

f 169/169/169 168/168/168 170/170/170

f 171/171/171 169/169/169 170/170/170

f 171/171/171 170/170/170 172/172/172

f 173/173/173 171/171/171 172/172/172

f 173/173/173 172/172/172 174/174/174

f 175/175/175 173/173/173 174/174/174

f 175/175/175 174/174/174 176/176/176

f 177/177/177 175/175/175 176/176/176

f 178/178/178 179/179/179 180/180/180

f 178/178/178 180/180/180 181/181/181

f 182/182/182 178/178/178 181/181/181

