# Blender v2.79 (sub 0) OBJ File: 'cheese.blend'
# www.blender.org
mtllib cheese.mtl
o Cylinder_Cylinder.001
v 0.073734 -0.202809 -0.366684
v 0.073734 0.305425 -0.366684
v -0.735282 -0.202809 0.132917
v -0.735282 0.305425 0.132917
v -0.904414 -0.202809 -0.543399
v -0.904414 0.305425 -0.543399
vt 0.473856 0.435207
vt 0.735106 0.435207
vt 0.735106 0.564793
vt 0.473856 0.564793
vt 0.367596 0.135904
vt 0.261336 0.435207
vt 0.261336 0.564793
vt 0.367596 0.864096
vt 0.000086 0.564793
vt 0.000086 0.435207
vn 0.5254 0.0000 0.8508
vn 0.0000 -1.0000 0.0000
vn -0.9701 0.0000 0.2426
vn 0.0000 1.0000 -0.0000
vn 0.1778 0.0000 -0.9841
usemtl None
s off
f 3/1/1 1/2/1 2/3/1 4/4/1
f 1/5/2 3/1/2 5/6/2
f 3/1/3 4/4/3 6/7/3 5/6/3
f 4/4/4 2/8/4 6/7/4
f 5/6/5 6/7/5 2/9/5 1/10/5
