# This file uses centimeters as units for non-parametric coordinates.

mtllib Bed Pillow.mtl
g default
v 1.747373 1.096385 0.192487
v 1.756129 1.148679 0.271635
v 1.720770 1.150001 0.192487
v 1.811475 1.139412 0.192487
v 1.792445 1.142599 0.271635
v 1.783689 1.090304 0.192487
v 1.763554 1.405529 0.192487
v 1.798913 1.404207 0.271635
v 1.807668 1.456501 0.192487
v 1.843984 1.450420 0.192487
v 1.835228 1.398126 0.271635
v 1.837931 1.393076 0.192487
v 1.763554 1.405529 -0.194257
v 1.807668 1.456501 -0.194257
v 1.798913 1.404207 -0.273405
v 1.835228 1.398126 -0.273405
v 1.843984 1.450420 -0.194257
v 1.854259 1.394940 -0.194257
v 1.720770 1.150001 -0.194257
v 1.756129 1.148679 -0.273405
v 1.747373 1.096385 -0.194257
v 1.783689 1.090304 -0.194257
v 1.792445 1.142599 -0.273405
v 1.811475 1.139412 -0.194257
v 1.794378 1.453681 -0.193514
v 1.761394 1.406059 -0.000885
v 1.807503 1.451483 0.264207
v 1.817098 1.401330 0.274111
v 1.842506 1.445623 0.264207
v 1.826100 1.455097 0.192735
v 1.855631 1.443425 0.191744
v 1.840146 1.392873 -0.000885
v 1.855631 1.443425 -0.193514
v 1.844477 1.452020 -0.000885
v 1.786362 1.405804 -0.265977
v 1.777302 1.276480 -0.275881
v 1.743742 1.151258 -0.265977
v 1.739974 1.278131 -0.194505
v 1.807503 1.451483 -0.265977
v 1.826100 1.455097 -0.194505
v 1.842506 1.445623 -0.265977
v 1.817098 1.401330 -0.275881
v 1.847615 1.395548 -0.265977
v 1.835055 1.266810 -0.194505
v 1.804996 1.141002 -0.265977
v 1.814055 1.270326 -0.275881
v 1.748851 1.101183 -0.265977
v 1.774259 1.145475 -0.275881
v 1.783854 1.095322 -0.265977
v 1.765257 1.091709 -0.194505
v 1.735726 1.103380 0.191744
v 1.718555 1.150204 -0.000885
v 1.735726 1.103380 -0.193514
v 1.746880 1.094786 -0.000885
v 1.748851 1.101183 0.264207
v 1.765257 1.091709 0.192735
v 1.783854 1.095322 0.264207
v 1.774259 1.145475 0.274111
v 1.743742 1.151258 0.264207
v 1.777302 1.276480 0.274111
v 1.786362 1.405804 0.264207
v 1.739974 1.278131 0.192735
v 1.796979 1.093124 0.191744
v 1.783634 1.088632 -0.000885
v 1.796979 1.093124 -0.193514
v 1.813635 1.138882 -0.000885
v 1.804996 1.141002 0.264207
v 1.818726 1.264946 0.192735
v 1.847615 1.395548 0.264207
v 1.814055 1.270326 0.274111
v 1.794378 1.453681 0.191744
v 1.807723 1.458173 -0.000885
v 1.734741 1.102872 -0.000885
v 1.766243 1.097598 0.265198
v 1.764177 1.278677 0.265198
v 1.797745 1.092324 -0.000885
v 1.827180 1.268128 0.265198
v 1.793612 1.454482 -0.000885
v 1.825114 1.449207 0.265198
v 1.856616 1.443933 -0.000885
v 1.764177 1.278677 -0.266967
v 1.825114 1.449207 -0.266967
v 1.827180 1.268128 -0.266967
v 1.766243 1.097598 -0.266967
v 1.795679 1.273403 0.277082
v 1.826429 1.457060 -0.000885
v 1.795679 1.273403 -0.278852
v 1.764928 1.089746 -0.000885
v 1.821351 1.264506 -0.000885
v 1.737350 1.278571 -0.000885
v 1.738679 1.104904 0.261236
v 1.794683 1.095527 0.261236
v 1.796674 1.451278 0.261236
v 1.852678 1.441902 0.261236
v 1.796674 1.451278 -0.263006
v 1.852678 1.441902 -0.263006
v 1.738679 1.104904 -0.263006
v 1.794683 1.095527 -0.263006
vt 0.437493 0.989311
vt 0.437493 0.000000
vt 0.444734 0.038042
vt 0.375000 0.989311
vt 0.364311 0.010689
vt 0.625000 0.989311
vt 0.635689 0.010689
vt 0.555265 0.038042
vt 0.562506 0.000000
vt 0.562506 0.989311
vt 0.364311 0.239311
vt 0.375000 0.260689
vt 0.444734 0.213183
vt 0.437493 0.260689
vt 0.562506 0.260689
vt 0.555265 0.213183
vt 0.635689 0.239311
vt 0.625000 0.260689
vt 0.375000 0.489311
vt 0.375000 0.510689
vt 0.135689 0.239311
vt 0.445959 0.463183
vt 0.437493 0.510689
vt 0.562506 0.510689
vt 0.554040 0.463183
vt 0.625000 0.489311
vt 0.864311 0.239311
vt 0.625000 0.510689
vt 0.375000 0.760689
vt 0.135689 0.010689
vt 0.375000 0.739311
vt 0.445959 0.713183
vt 0.437493 0.760689
vt 0.562506 0.760689
vt 0.554040 0.713183
vt 0.625000 0.760689
vt 0.625000 0.739311
vt 0.864311 0.010689
vt 0.406247 0.875000
vt 0.500000 0.005344
vt 0.400902 0.125000
vt 0.593753 0.875000
vt 0.599097 0.125000
vt 0.406247 0.375000
vt 0.500000 0.250000
vt 0.593753 0.375000
vt 0.406247 0.625000
vt 0.500000 0.500000
vt 0.593753 0.625000
vt 0.500000 0.750000
vt 0.500000 0.125000
vt 0.500000 0.375000
vt 0.500000 0.625000
vt 0.500000 0.875000
vt 0.750000 0.125000
vt 0.250000 0.125000
vt 0.413099 0.007126
vt 0.586900 0.007126
vt 0.413099 0.246437
vt 0.586900 0.246437
vt 0.416662 0.496437
vt 0.583337 0.496437
vt 0.416662 0.746437
vt 0.583337 0.746437
vt 0.406247 0.989311
vt 0.400902 0.005344
vt 0.375000 0.875000
vt 0.250000 0.010689
vt 0.406247 0.760689
vt 0.406247 0.750000
vt 0.445308 0.875000
vt 0.447021 0.005790
vt 0.500000 0.000000
vt 0.500000 0.989311
vt 0.552978 0.005790
vt 0.500000 0.037930
vt 0.403952 0.038376
vt 0.443972 0.125000
vt 0.403952 0.212515
vt 0.344881 0.125000
vt 0.593753 0.989311
vt 0.599097 0.005344
vt 0.554691 0.875000
vt 0.593753 0.760689
vt 0.593753 0.750000
vt 0.625000 0.875000
vt 0.750000 0.010689
vt 0.596048 0.038376
vt 0.655119 0.125000
vt 0.596048 0.212515
vt 0.556027 0.125000
vt 0.406247 0.260689
vt 0.400902 0.250000
vt 0.445308 0.375000
vt 0.408851 0.462515
vt 0.375000 0.375000
vt 0.250000 0.239311
vt 0.447021 0.249109
vt 0.500000 0.213406
vt 0.552978 0.249109
vt 0.500000 0.286594
vt 0.593753 0.260689
vt 0.599097 0.250000
vt 0.625000 0.375000
vt 0.750000 0.239311
vt 0.591149 0.462515
vt 0.554691 0.375000
vt 0.406247 0.510689
vt 0.406247 0.500000
vt 0.445308 0.625000
vt 0.408851 0.712515
vt 0.375000 0.625000
vt 0.135689 0.125000
vt 0.447912 0.499109
vt 0.500000 0.463406
vt 0.552087 0.499109
vt 0.500000 0.536594
vt 0.593753 0.510689
vt 0.593753 0.500000
vt 0.625000 0.625000
vt 0.864311 0.125000
vt 0.591149 0.712515
vt 0.554691 0.625000
vt 0.447912 0.749109
vt 0.500000 0.713406
vt 0.552087 0.749109
vt 0.500000 0.786594
vn -0.367268 -0.929821 0.023376
vn -0.913611 -0.403261 0.051913
vn -0.894912 -0.446243 0.000000
vn -0.384011 -0.923328 0.000000
vn -0.995836 0.040430 0.081700
vn -0.999707 0.024224 0.000000
vn -0.995836 0.040430 -0.081700
vn -0.913611 -0.403261 -0.051913
vn -0.367268 -0.929821 -0.023376
vn -0.307391 0.000065 0.951583
vn -0.356425 -0.760921 0.542182
vn -0.137194 -0.819398 0.556566
vn -0.010025 -0.059873 0.998156
vn -0.165073 -0.985904 0.027284
vn 0.044363 -0.998742 0.023376
vn 0.089128 -0.835521 0.542181
vn 0.290647 -0.100066 0.951584
vn -0.921489 0.074613 0.381170
vn -0.900807 0.151105 0.407080
vn -0.982026 0.164330 0.092846
vn -0.323113 0.054100 0.944813
vn -0.290647 0.100066 0.951583
vn -0.898558 0.232786 0.372026
vn -0.956610 0.279946 0.080797
vn 0.990610 -0.136257 0.011221
vn 0.873605 -0.485998 0.024911
vn 0.866823 -0.498615 -0.000000
vn 0.988128 -0.152898 0.015021
vn 0.062308 -0.998057 0.000000
vn 0.044363 -0.998742 -0.023376
vn 0.873605 -0.485998 -0.024911
vn 0.983271 -0.181796 -0.011341
vn 0.972996 -0.161747 0.164670
vn 0.985224 -0.138161 0.101218
vn 0.323113 -0.054100 0.944813
vn 0.993603 -0.112629 -0.008255
vn 0.981686 -0.189670 -0.017826
vn 0.983491 -0.166639 0.070543
vn 0.307391 -0.000065 0.951583
vn -0.775297 0.629828 0.047239
vn -0.754339 0.656485 0.000000
vn -0.955046 0.296459 0.000000
vn -0.044363 0.998742 0.023376
vn -0.062308 0.998057 0.000000
vn -0.044363 0.998742 -0.023376
vn -0.775297 0.629828 -0.047239
vn -0.956610 0.279946 -0.080797
vn -0.089128 0.835521 0.542182
vn 0.137194 0.819398 0.556565
vn 0.165073 0.985904 0.027284
vn 0.010025 0.059873 0.998156
vn 0.356425 0.760921 0.542182
vn 0.367268 0.929821 0.023376
vn 0.997363 -0.072571 -0.000064
vn 0.999630 -0.020495 0.017863
vn 0.384011 0.923328 0.000000
vn 0.983602 -0.176945 0.034879
vn 0.988731 -0.148500 0.018945
vn 0.997559 0.069813 0.001600
vn 0.367268 0.929821 -0.023376
vn -0.898558 0.232786 -0.372026
vn -0.900807 0.151105 -0.407079
vn -0.982026 0.164330 -0.092846
vn -0.290647 0.100066 -0.951583
vn -0.323113 0.054100 -0.944813
vn -0.307391 0.000065 -0.951583
vn -0.921489 0.074613 -0.381170
vn -0.089128 0.835521 -0.542181
vn 0.137194 0.819398 -0.556565
vn 0.010025 0.059873 -0.998156
vn 0.165073 0.985904 -0.027284
vn 0.356425 0.760921 -0.542181
vn 0.307391 -0.000065 -0.951583
vn 0.965033 -0.122667 -0.231655
vn 0.957007 -0.160235 -0.241789
vn 0.323113 -0.054100 -0.944813
vn 0.989656 -0.143196 0.008675
vn 0.952358 -0.198368 -0.231655
vn 0.290647 -0.100066 -0.951583
vn -0.356426 -0.760921 -0.542181
vn -0.137194 -0.819398 -0.556565
vn -0.165073 -0.985904 -0.027284
vn -0.010025 -0.059873 -0.998156
vn 0.089128 -0.835521 -0.542181
vn -0.000000 -0.000000 1.000000
vn 0.165134 0.986271 0.000000
vn 0.000000 0.000000 -1.000000
vn -0.165134 -0.986271 -0.000000
vn 0.992430 -0.118844 0.030959
vn -0.986271 0.165134 -0.000000
vn -0.909814 -0.292809 0.294112
vn 0.855801 -0.470088 0.215921
vn -0.787793 0.550390 0.276501
vn 0.991451 0.027157 0.127623
vn -0.787793 0.550390 -0.276501
vn 0.962251 0.165687 -0.215921
vn -0.909814 -0.292809 -0.294112
vn 0.855801 -0.470088 -0.215921
s 1
g pCube3
usemtl initialShadingGroup
f 1/1/1 51/65/2 73/39/3 54/71/4
f 51/65/2 3/4/5 52/67/6 73/39/3
f 73/39/3 52/67/6 19/29/7 53/69/8
f 54/71/4 73/39/3 53/69/8 21/33/9
f 2/3/10 55/72/11 74/40/12 58/76/13
f 55/72/11 1/2/1 56/73/14 74/40/12
f 74/40/12 56/73/14 6/9/15 57/75/16
f 58/76/13 74/40/12 57/75/16 5/8/17
f 3/5/5 59/77/18 75/41/19 62/80/20
f 59/77/18 2/3/10 60/78/21 75/41/19
f 75/41/19 60/78/21 8/13/22 61/79/23
f 62/80/20 75/41/19 61/79/23 7/11/24
f 4/6/25 63/81/26 76/42/27 66/86/28
f 63/81/26 6/10/15 64/83/29 76/42/27
f 76/42/27 64/83/29 22/34/30 65/84/31
f 66/86/28 76/42/27 65/84/31 24/36/32
f 5/8/17 67/88/33 77/43/34 70/91/35
f 67/88/33 4/7/25 68/89/36 77/43/34
f 77/43/34 68/89/36 12/17/37 69/90/38
f 70/91/35 77/43/34 69/90/38 11/16/39
f 7/12/24 71/92/40 78/44/41 26/96/42
f 71/92/40 9/14/43 72/94/44 78/44/41
f 78/44/41 72/94/44 14/22/45 25/95/46
f 26/96/42 78/44/41 25/95/46 13/19/47
f 9/14/43 27/98/48 79/45/49 30/101/50
f 27/98/48 8/13/22 28/99/51 79/45/49
f 79/45/49 28/99/51 11/16/39 29/100/52
f 30/101/50 79/45/49 29/100/52 10/15/53
f 10/15/53 31/102/54 80/46/55 34/107/56
f 31/102/54 12/18/37 32/104/57 80/46/55
f 80/46/55 32/104/57 18/26/58 33/106/59
f 34/107/56 80/46/55 33/106/59 17/25/60
f 13/20/47 35/108/61 81/47/62 38/112/63
f 35/108/61 15/23/64 36/110/65 81/47/62
f 81/47/62 36/110/65 20/32/66 37/111/67
f 38/112/63 81/47/62 37/111/67 19/31/7
f 15/23/64 39/114/68 82/48/69 42/117/70
f 39/114/68 14/22/45 40/115/71 82/48/69
f 82/48/69 40/115/71 17/25/60 41/116/72
f 42/117/70 82/48/69 41/116/72 16/24/73
f 16/24/73 43/118/74 83/49/75 46/123/76
f 43/118/74 18/28/58 44/120/77 83/49/75
f 83/49/75 44/120/77 24/37/32 45/122/78
f 46/123/76 83/49/75 45/122/78 23/35/79
f 21/33/9 47/124/80 84/50/81 50/127/82
f 47/124/80 20/32/66 48/125/83 84/50/81
f 84/50/81 48/125/83 23/35/79 49/126/84
f 50/127/82 84/50/81 49/126/84 22/34/30
f 2/3/10 58/76/13 85/51/85 60/78/21
f 58/76/13 5/8/17 70/91/35 85/51/85
f 85/51/85 70/91/35 11/16/39 28/99/51
f 60/78/21 85/51/85 28/99/51 8/13/22
f 9/14/43 30/101/50 86/52/86 72/94/44
f 30/101/50 10/15/53 34/107/56 86/52/86
f 86/52/86 34/107/56 17/25/60 40/115/71
f 72/94/44 86/52/86 40/115/71 14/22/45
f 15/23/64 42/117/70 87/53/87 36/110/65
f 42/117/70 16/24/73 46/123/76 87/53/87
f 87/53/87 46/123/76 23/35/79 48/125/83
f 36/110/65 87/53/87 48/125/83 20/32/66
f 21/33/9 50/127/82 88/54/88 54/71/4
f 50/127/82 22/34/30 64/83/29 88/54/88
f 88/54/88 64/83/29 6/10/15 56/74/14
f 54/71/4 88/54/88 56/74/14 1/1/1
f 4/7/25 66/87/28 89/55/89 68/89/36
f 66/87/28 24/38/32 44/121/77 89/55/89
f 89/55/89 44/121/77 18/27/58 32/105/57
f 68/89/36 89/55/89 32/105/57 12/17/37
f 19/30/7 52/68/6 90/56/90 38/113/63
f 52/68/6 3/5/5 62/80/20 90/56/90
f 90/56/90 62/80/20 7/11/24 26/97/42
f 38/113/63 90/56/90 26/97/42 13/21/47
f 1/2/1 55/72/11 91/57/91 51/66/2
f 2/3/10 59/77/18 91/57/91 55/72/11
f 3/5/5 51/66/2 91/57/91 59/77/18
f 4/7/25 67/88/33 92/58/92 63/82/26
f 5/8/17 57/75/16 92/58/92 67/88/33
f 6/9/15 63/82/26 92/58/92 57/75/16
f 7/11/24 61/79/23 93/59/93 71/93/40
f 8/13/22 27/98/48 93/59/93 61/79/23
f 9/14/43 71/93/40 93/59/93 27/98/48
f 10/15/53 29/100/52 94/60/94 31/103/54
f 11/16/39 69/90/38 94/60/94 29/100/52
f 12/17/37 31/103/54 94/60/94 69/90/38
f 13/19/47 25/95/46 95/61/95 35/109/61
f 14/22/45 39/114/68 95/61/95 25/95/46
f 15/23/64 35/109/61 95/61/95 39/114/68
f 16/24/73 41/116/72 96/62/96 43/119/74
f 17/25/60 33/106/59 96/62/96 41/116/72
f 18/26/58 43/119/74 96/62/96 33/106/59
f 19/31/7 37/111/67 97/63/97 53/70/8
f 20/32/66 47/124/80 97/63/97 37/111/67
f 21/33/9 53/70/8 97/63/97 47/124/80
f 22/34/30 49/126/84 98/64/98 65/85/31
f 23/35/79 45/122/78 98/64/98 49/126/84
f 24/37/32 65/85/31 98/64/98 45/122/78
